<svg id="Capa_1" enable-background="new 0 0 512 512" height="512" viewBox="0 0 512 512" width="512" xmlns="http://www.w3.org/2000/svg"><g><g><path clip-rule="evenodd" d="m504.472 257.018c-59.692-80.67-167.779-118.308-248.475-119.075-91.51-6.443-186.172 45.558-248.475 119.075.085 1.448.738 3.037 2.129 6.273 82.399 192.308 404.928 211.95 492.947-.426 1.193-2.923 1.789-4.485 1.874-5.847z" fill="#f8f7f7" fill-rule="evenodd"/></g><g><path clip-rule="evenodd" d="m255.997 368.769c62.19 0 112.6-50.383 112.6-112.575 0-29.492-11.354-56.344-29.917-76.441-58.5-40.108-110.925-39.143-165.366 0-18.563 20.097-29.888 46.949-29.888 76.441 0 62.192 50.41 112.575 112.571 112.575z" fill="#75cef8" fill-rule="evenodd"/></g><g><path clip-rule="evenodd" d="m368.597 256.195c0-29.492-11.354-56.344-29.917-76.441-5.138-1.221-10.303-8.657-15.413-9.679 12.205 17.996 19.358 46.04 19.358 69.458 0 62.163-50.41 112.575-112.6 112.575-16.832 0-32.812-3.69-47.174-10.332 19.67 16.832 45.216 26.994 73.146 26.994 62.19-.001 112.6-50.384 112.6-112.575z" fill="#60b7ff" fill-rule="evenodd"/></g><g><path clip-rule="evenodd" d="m310.381 256.195c0-30.031-24.354-54.385-54.384-54.385s-54.356 24.354-54.356 54.385 24.325 54.385 54.356 54.385c5.478 0 10.729-.823 15.696-2.299l34.969-32.274c2.385-6.131 3.719-12.83 3.719-19.812z" fill="#685e68" fill-rule="evenodd"/></g><g><path clip-rule="evenodd" d="m287.589 314.327c13.199 0 23.899-10.701 23.899-23.9 0-5.422-1.788-10.417-4.825-14.42-4.371-5.762-11.297-9.481-19.074-9.481-13.199 0-23.899 10.701-23.899 23.9 0 7.096 3.094 13.454 8.004 17.854 4.229 3.748 9.792 6.047 15.895 6.047z" fill="#f8f7f7" fill-rule="evenodd"/></g><g><path clip-rule="evenodd" d="m502.456 249.439c-70.393-216.548-426.784-189.242-492.749 0-1.476 4.201-2.299 5.762-2.186 7.579 85.01-58.388 167.779-86.886 248.475-87.624 80.696.738 163.464 29.236 248.475 87.624.143-1.874-.652-3.35-2.015-7.579z" fill="#fed2a4" fill-rule="evenodd"/></g><g><path clip-rule="evenodd" d="m310.381 256.195c0-30.031-24.354-54.385-54.384-54.385-12.659 0-24.325 4.343-33.55 11.609 3.775-.852 7.692-1.277 11.723-1.277 30.03 0 54.384 24.354 54.384 54.385 7.38.312 13.908 3.946 18.109 9.481 2.384-6.132 3.718-12.831 3.718-19.813z" fill="#554e56" fill-rule="evenodd"/></g><g><path clip-rule="evenodd" d="m502.456 249.439c-30.144-92.705-112.685-140.704-202.407-150.468 37.893 15.952 69.399 40.221 90.687 69.713 8.004 11.07 14.561 22.907 19.472 35.339 31.109 13.568 62.53 31.195 94.264 52.995.142-1.874-.653-3.35-2.016-7.579z" fill="#ffbd86" fill-rule="evenodd"/></g><g><path clip-rule="evenodd" d="m504.472 257.018c-31.733-21.8-63.155-39.427-94.264-52.995 6.727 17.031 10.36 35.169 10.36 53.988 0 63.98-42.037 120.182-105.39 152.058 79.703-14.561 152.253-62.39 187.42-147.204 1.193-2.923 1.789-4.485 1.874-5.847z" fill="#e1e1e1" fill-rule="evenodd"/></g><g><path d="m317.891 256.195c0-34.129-27.765-61.895-61.894-61.895-34.113 0-61.866 27.766-61.866 61.895s27.753 61.895 61.866 61.895c4.714 0 9.423-.549 14.051-1.62 5.012 3.387 11.05 5.366 17.541 5.366 17.319 0 31.409-14.09 31.409-31.41 0-5.591-1.475-10.84-4.046-15.393 1.942-6.093 2.939-12.411 2.939-18.838zm-108.74 0c0-25.847 21.015-46.876 46.846-46.876 25.846 0 46.874 21.028 46.874 46.876 0 2.203-.152 4.389-.455 6.551-4.419-2.377-9.468-3.729-14.827-3.729-17.319 0-31.409 14.09-31.409 31.41 0 4.461.941 8.705 2.625 12.552-.935.056-1.871.092-2.807.092-25.832-.001-46.847-21.029-46.847-46.876zm78.438 50.622c-9.037 0-16.389-7.353-16.389-16.39s7.352-16.39 16.389-16.39 16.389 7.353 16.389 16.39c0 9.038-7.352 16.39-16.389 16.39z"/><path d="m510.503 249.801c-.259-.747-.561-1.619-.905-2.683-19.026-58.519-59.69-103.74-117.597-130.775-51.492-24.039-114.159-32.261-176.459-23.157-4.104.6-6.945 4.414-6.344 8.518.599 4.103 4.411 6.946 8.517 6.344 105.727-15.454 228.787 19.495 272.938 130.82-78.832-50.386-157.657-76.281-234.587-76.984-.045-.001-.092-.001-.137 0-76.664.7-155.194 26.415-233.721 76.448 26.376-58.875 86.445-104.682 163.713-123.986 4.024-1.005 6.471-5.082 5.466-9.106s-5.084-6.47-9.106-5.466c-41.637 10.402-79.742 28.543-110.196 52.462-33.304 26.158-56.677 58.03-69.468 94.732-.341.978-.645 1.807-.909 2.526-2.609 7.11-2.201 9.209 1.041 16.754 20.797 48.537 57.61 88.905 106.458 116.741 45.311 25.82 97.827 39.441 152.006 39.44.639 0 1.285-.002 1.925-.006 52.569-.313 102.577-13.682 144.618-38.66 45.884-27.263 81.08-68.075 101.791-118.047 3.016-7.348 3.15-9.579.956-15.915zm-247.455 157.603c-111.174.698-207.929-57.067-246.497-147.078-.035-.082-.073-.17-.11-.255 46.004-31.026 91.955-53.452 137.454-67.142-11.697 18.863-17.98 40.685-17.98 63.266 0 66.215 53.868 120.084 120.081 120.084 30.591 0 59.729-11.5 82.045-32.38 22.206-20.778 35.617-48.884 37.762-79.14.293-4.137-2.823-7.729-6.96-8.022-4.128-.294-7.729 2.824-8.022 6.96-3.88 54.708-49.924 97.563-104.825 97.563-57.931 0-105.062-47.132-105.062-105.064 0-25.712 9.303-50.301 26.247-69.519 26.475-6.248 52.774-9.528 78.814-9.771 26.033.243 52.326 3.522 78.797 9.768 11.264 12.776 19.316 28.156 23.326 44.644.836 3.434 3.908 5.737 7.291 5.737.587 0 1.185-.07 1.781-.215 4.03-.98 6.503-5.042 5.522-9.072-2.995-12.313-7.957-24.086-14.624-34.839 45.517 13.693 91.491 36.129 137.524 67.168-38.01 91.6-124.942 146.667-232.564 147.307z"/></g></g></svg>